<svg width="420" height="420" viewBox="0 0 420 420" fill="none" xmlns="http://www.w3.org/2000/svg">
  <defs>
    <radialGradient id="glow" cx="0" cy="0" r="1" gradientUnits="userSpaceOnUse" gradientTransform="translate(210 210) rotate(90) scale(210)">
      <stop offset="0.1" stop-color="#60A5FA" stop-opacity="0.9"/>
      <stop offset="0.5" stop-color="#7C3AED" stop-opacity="0.4"/>
      <stop offset="1" stop-color="#0F172A" stop-opacity="0"/>
    </radialGradient>
    <linearGradient id="pulse" x1="50" y1="40" x2="370" y2="380" gradientUnits="userSpaceOnUse">
      <stop stop-color="#38BDF8"/>
      <stop offset="0.45" stop-color="#8B5CF6"/>
      <stop offset="1" stop-color="#F472B6"/>
    </linearGradient>
  </defs>
  <rect width="420" height="420" rx="48" fill="#020617"/>
  <circle cx="210" cy="210" r="210" fill="url(#glow)"/>
  <g opacity="0.6">
    <path d="M60 145C123 120 297 60 360 105" stroke="url(#pulse)" stroke-width="3" stroke-linecap="round"/>
    <path d="M60 275C123 300 297 360 360 315" stroke="url(#pulse)" stroke-width="3" stroke-linecap="round"/>
  </g>
  <g opacity="0.8">
    <path d="M120 80L300 340" stroke="#38BDF8" stroke-width="1.4" stroke-dasharray="8 8"/>
    <path d="M120 340L300 80" stroke="#F472B6" stroke-width="1.4" stroke-dasharray="8 8"/>
  </g>
  <circle cx="150" cy="190" r="32" fill="#0EA5E9" opacity="0.8"/>
  <circle cx="280" cy="130" r="26" fill="#F97316" opacity="0.8"/>
  <circle cx="315" cy="265" r="34" fill="#A855F7" opacity="0.85"/>
  <circle cx="180" cy="300" r="28" fill="#22D3EE" opacity="0.8"/>
  <path d="M145 190C162 177 210 142 260 125" stroke="white" stroke-opacity="0.5" stroke-width="2" stroke-linecap="round"/>
  <path d="M210 215C226 229 272 270 310 268" stroke="white" stroke-opacity="0.45" stroke-width="2" stroke-linecap="round"/>
  <rect x="170" y="170" width="80" height="80" rx="18" fill="#0F172A" stroke="url(#pulse)" stroke-width="2"/>
  <path d="M190 210L208 228L246 190" stroke="#34D399" stroke-width="6" stroke-linecap="round" stroke-linejoin="round"/>
</svg>

